<?xml version="1.0" encoding="UTF-8"?>
<svg version="1.1" xmlns="http://www.w3.org/2000/svg" width="360" height="296">
<path d="M0 0 C0.11456543 0.78270264 0.22913086 1.56540527 0.34716797 2.37182617 C0.85119955 5.17302788 1.46166041 7.82550634 2.18017578 10.5715332 C6.18206256 26.90986099 7.98210255 45.58249998 0 61 C-9.5328994 75.95255551 -23.28374563 88.37600236 -36.0625 100.5 C-36.9182235 101.31199986 -37.77394699 102.12399971 -38.6556015 102.96060562 C-50.56750713 114.21596956 -62.77568346 125.11497256 -75.14440727 135.86351013 C-76.20503726 136.78759422 -76.20503726 136.78759422 -77.28709412 137.73034668 C-78.2458578 138.56411457 -78.2458578 138.56411457 -79.22399044 139.41472626 C-81.58310475 141.5204818 -83.79904726 143.73026749 -86 146 C-84.50767714 149.48701672 -82.51441849 151.71827786 -79.82421875 154.37109375 C-78.99599609 155.19287109 -78.16777344 156.01464844 -77.31445312 156.86132812 C-76.44755859 157.71146484 -75.58066406 158.56160156 -74.6875 159.4375 C-73.83220703 160.28376953 -72.97691406 161.13003906 -72.09570312 162.00195312 C-70.4405537 163.6391536 -68.78291595 165.27384307 -67.12255859 166.90576172 C-65.57351596 168.43413619 -64.04140647 169.97972788 -62.51953125 171.53515625 C-60.26236052 173.74333413 -57.94791591 175.83100894 -55.58496094 177.92431641 C-49.57637118 183.3230093 -43.84099874 188.97634797 -38.12109375 194.67578125 C-37.57988451 195.21416311 -37.03867527 195.75254498 -36.48106575 196.30724144 C-33.63079472 199.14268113 -30.78328309 201.98085578 -27.93823242 204.8215332 C-25.00619155 207.74803515 -22.06494029 210.66510064 -19.12158108 213.58021259 C-16.84751383 215.83569012 -14.58014944 218.09781476 -12.31459236 220.36183739 C-11.23219915 221.44120789 -10.14730994 222.5180815 -9.05987358 223.59237099 C-7.54765429 225.08756679 -6.04514834 226.59190407 -4.54467773 228.09887695 C-3.26088478 229.37720146 -3.26088478 229.37720146 -1.95115662 230.68135071 C1.31518916 234.56289986 1.12019412 237.74136184 1.02172852 242.68652344 C1.00163223 243.82740417 0.98153595 244.96828491 0.96083069 246.14373779 C0.93379562 247.36989807 0.90676056 248.59605835 0.87890625 249.859375 C0.85529526 251.11888977 0.83168427 252.37840454 0.80735779 253.67608643 C0.74377606 257.01672274 0.67556319 260.35719911 0.60510254 263.69769287 C0.53427725 267.10958468 0.46954538 270.52159154 0.40429688 273.93359375 C0.27514476 280.62251602 0.13988533 287.31129405 0 294 C-3.86943236 292.41223932 -6.29920743 289.9358243 -9.22412109 286.98706055 C-9.73200668 286.47786072 -10.23989227 285.96866089 -10.76316833 285.44403076 C-12.43790607 283.76281276 -14.10555167 282.07473209 -15.7734375 280.38671875 C-16.9411082 279.21277311 -18.10929858 278.03934415 -19.27798462 276.8664093 C-22.35416232 273.77693384 -25.42472945 270.681947 -28.49371338 267.58532715 C-33.39719277 262.6387357 -38.30731987 257.69876728 -43.22084427 252.76215553 C-44.93037819 251.04245972 -46.63642018 249.31935619 -48.34213257 247.59587097 C-49.40033217 246.53083626 -50.45864542 245.46591445 -51.51708984 244.40112305 C-52.89131607 243.01451729 -52.89131607 243.01451729 -54.29330444 241.59989929 C-57.09566167 238.90811279 -60.00314975 236.47062796 -63 234 C-64.03744193 232.86649863 -65.0456517 231.70429666 -66 230.5 C-68.69951763 227.23661445 -71.73831744 224.70650255 -75 222 C-76.21722403 220.52651828 -77.43347077 219.05205918 -78.62887573 217.56082153 C-80.08328383 215.90519372 -81.62038743 214.56277569 -83.31298828 213.15185547 C-89.0612366 208.1777382 -94.35732159 202.75375754 -99.71126938 197.36389542 C-101.65072701 195.41155012 -103.59340037 193.46245504 -105.53689575 191.51412964 C-109.65243276 187.38723966 -113.76399001 183.25639893 -117.875 179.125 C-122.66185616 174.31453522 -127.45033366 169.50570744 -132.24301529 164.70104599 C-134.15843569 162.77913631 -136.07082639 160.85424611 -137.98312378 158.92922974 C-139.14989776 157.75882561 -140.31681103 156.58856031 -141.48388672 155.41845703 C-142.01582138 154.88135605 -142.54775604 154.34425507 -143.09580994 153.7908783 C-145.78842183 151.0526736 -145.78842183 151.0526736 -149 149 C-149 145 -149 145 -147.61364746 143.4395752 C-146.96448364 142.92906616 -146.31531982 142.41855713 -145.64648438 141.89257812 C-140.31631469 137.4873101 -135.52083397 132.62731099 -130.65625 127.71875 C-129.67823581 126.73631622 -128.69991749 125.75418512 -127.72131348 124.77233887 C-124.64468605 121.68439429 -121.57203564 118.59251186 -118.5 115.5 C-114.93446097 111.91069537 -111.36722072 108.32311492 -107.79570007 104.73976135 C-106.38241371 103.32008843 -104.97222889 101.89733001 -103.56213379 100.4744873 C-102.68762573 99.59667603 -101.81311768 98.71886475 -100.91210938 97.81445312 C-100.15458374 97.05169067 -99.39705811 96.28892822 -98.61657715 95.50305176 C-96.53355302 93.51040376 -94.42333811 91.62185064 -92.24118042 89.74217224 C-87.69938211 85.79549376 -83.46361543 81.58234625 -79.22900391 77.31079102 C-77.97385986 76.05104713 -77.97385986 76.05104713 -76.69335938 74.76585388 C-74.89062488 72.95600597 -73.08901945 71.14503286 -71.2884407 69.33304024 C-68.44197788 66.4691094 -65.59202596 63.60869714 -62.74081421 60.74949646 C-54.63997854 52.62461227 -46.54522881 44.49368 -38.45458984 36.35864258 C-33.97327502 31.85281479 -29.4884002 27.35056116 -24.99964845 22.8521418 C-22.62818231 20.47520196 -20.2587269 18.09632756 -17.89378738 15.71289253 C-15.26521815 13.06523216 -12.63066212 10.42367338 -9.99462891 7.78344727 C-8.818022 6.59369797 -8.818022 6.59369797 -7.61764526 5.37991333 C-6.54543732 4.30966164 -6.54543732 4.30966164 -5.4515686 3.2177887 C-4.82960917 2.59268685 -4.20764973 1.96758501 -3.56684303 1.32354069 C-2 0 -2 0 0 0 Z " fill="#39B6FD" transform="translate(149,0)"/>
<path d="M0 0 C3.48156867 0.58379009 5.1264593 1.75433855 7.59837341 4.23760986 C8.29502106 4.93013351 8.9916687 5.62265717 9.70942688 6.33616638 C10.46330185 7.10082718 11.21717682 7.86548798 11.99389648 8.65332031 C13.19704498 9.85581169 13.19704498 9.85581169 14.42449951 11.08259583 C17.08053465 13.74072469 19.72577538 16.40933428 22.37109375 19.078125 C24.21362395 20.92625162 26.05681853 22.77371608 27.90065002 24.62054443 C32.26384497 28.99306782 36.6193408 33.37317784 40.97212225 37.75606513 C45.90756651 42.7249165 50.85141334 47.68537024 55.79604614 52.64507532 C64.25563868 61.13073647 72.70892139 69.62264989 81.15504456 78.12171936 C82.51427588 79.48937555 83.87388592 80.85665551 85.23397636 82.22345734 C86.33265113 83.32867617 87.42971683 84.4354999 88.52427864 85.54479218 C90.45104256 87.49146274 92.35726458 89.28581166 94.5 91 C97.21083299 93.16866639 99.5596531 95.53092548 102 98 C102.79976761 98.79976761 103.59953522 99.59953522 104.42353821 100.42353821 C119.61569214 115.61569214 134.80784607 130.80784607 150 146 C148.37043584 150.12242267 145.39021488 152.88423919 142.30029297 155.94262695 C141.71788345 156.52693481 141.13547394 157.11124268 140.53541565 157.71325684 C138.60919093 159.64318477 136.67585917 161.56581699 134.7421875 163.48828125 C133.39621099 164.83306481 132.05060486 166.17821917 130.70535278 167.52372742 C127.88217216 170.34534357 125.05566423 173.16356897 122.2265625 175.97924805 C118.61713857 179.57175581 115.01425775 183.17073652 111.41366386 186.77209187 C108.63255054 189.55293179 105.84882674 192.33114618 103.06424332 195.10851097 C101.73611742 196.43347408 100.40857925 197.7590266 99.08166122 199.08519936 C86.48113899 211.67091095 86.48113899 211.67091095 80.74417114 216.46867371 C78.38430157 218.54056347 76.20742281 220.76619907 74 223 C72.90598666 224.09930355 71.81153968 225.19817566 70.7167511 226.29670715 C69.45998512 227.55951325 68.20324754 228.8223476 66.9465332 230.08520508 C59.94242212 237.12192576 52.93327164 244.15360459 45.92121601 251.18240833 C41.68173071 255.43237705 37.44415305 259.68421393 33.21069336 263.94018555 C29.11146902 268.06106304 25.00744662 272.17710425 20.89998436 276.28977013 C19.33406941 277.8593899 17.76992025 279.43077328 16.20754433 281.00391579 C14.03137745 283.1945003 11.84913449 285.3788477 9.6652832 287.56176758 C9.01642654 288.21781479 8.36756989 288.873862 7.6990509 289.54978943 C3.22810918 294 3.22810918 294 1 294 C-7.34654917 244.89806504 -7.34654917 244.89806504 4.41905785 227.18933678 C10.5014304 218.80842322 17.87307446 211.58670029 25.5 204.625 C26.08161644 204.09356636 26.66323288 203.56213272 27.26247406 203.01459503 C34.10603301 196.80412639 41.15538403 190.8939395 48.37097168 185.12117004 C54.54871882 180.13679917 60.32143006 174.82669202 65.90625 169.19140625 C66.51641968 168.57982162 67.12658936 167.968237 67.75524902 167.33811951 C69.67256165 165.41528198 71.58633702 163.48896906 73.5 161.5625 C74.81226585 160.24520941 76.12476395 158.92815014 77.4375 157.61132812 C80.62768506 154.4102139 83.81470651 151.20598135 87 148 C85.71516476 145.14494339 84.42689256 143.21162774 82.1043396 141.11940002 C81.51953638 140.58500525 80.93473316 140.05061049 80.33220863 139.50002193 C79.69712568 138.92839604 79.06204273 138.35677015 78.40771484 137.76782227 C72.83422956 132.65781743 67.35351975 127.47512351 61.97900391 122.15600586 C61.29692556 121.48096292 60.61484722 120.80591997 59.91209984 120.11042118 C57.76462065 117.98086308 55.62013088 115.84833801 53.4765625 113.71484375 C52.73031994 112.97267672 51.98407738 112.23050968 51.21522141 111.46585274 C47.2883895 107.55962306 43.36465306 103.65031423 39.44335938 99.73852539 C35.4022414 95.70860563 31.34954345 91.69053144 27.29439735 87.67473507 C24.16003499 84.56643569 21.03451375 81.44936088 17.91135788 78.32980537 C16.41955791 76.8428737 14.9243832 75.35931976 13.42576981 73.87925529 C11.34418645 71.82191049 9.27547487 69.75241789 7.20947266 67.67944336 C6.59143265 67.07421341 5.97339264 66.46898346 5.33662415 65.84541321 C0.39357291 60.84109971 -0.12928241 57.27210886 -0.11352539 50.29174805 C-0.11344986 49.17096359 -0.11337433 48.05017914 -0.11329651 46.89543152 C-0.10813522 45.6963063 -0.10297394 44.49718109 -0.09765625 43.26171875 C-0.0962413 42.02581497 -0.09482635 40.78991119 -0.09336853 39.51655579 C-0.08872618 36.24341655 -0.07975311 32.97032713 -0.06866455 29.69720459 C-0.05840404 26.35217752 -0.05394631 23.00714827 -0.04882812 19.66210938 C-0.03780907 13.1080535 -0.02107836 6.55403082 0 0 Z " fill="#39B5FD" transform="translate(210,0)"/>
<path d="M0 0 C3.96549831 1.59751363 6.61698761 4.35485824 9.55957031 7.34838867 C10.37510124 8.16589096 10.37510124 8.16589096 11.20710754 8.99990845 C13.00208866 10.80137529 14.78998495 12.60971352 16.578125 14.41796875 C17.83068519 15.67680453 19.08376538 16.93512309 20.33734131 18.19294739 C23.63961889 21.50852899 26.93629409 24.82962073 30.23138428 28.15234375 C35.48949395 33.45353835 40.75419535 38.74816312 46.02236176 44.03936195 C47.85258454 45.87971768 49.67930012 47.72350061 51.50567627 49.56767273 C56.66815477 54.76721999 61.81380315 59.9109249 67.41790771 64.64179993 C69.74411944 66.63881424 71.86661096 68.79994255 74 71 C72.43292343 74.76817971 70.08955319 77.1580299 67.21826172 80.0246582 C66.73338791 80.51143036 66.2485141 80.99820251 65.74894714 81.49972534 C64.14736926 83.10500191 62.53871098 84.70297043 60.9296875 86.30078125 C59.80791328 87.42136211 58.68650985 88.54231426 57.56546021 89.66362 C55.21306177 92.01445465 52.85734521 94.36189497 50.49902344 96.70678711 C47.49494676 99.69396251 44.49740523 102.68758868 41.50214958 105.68360615 C39.18426678 108.0012151 36.86377149 110.31619357 34.54242325 112.63033104 C33.43758775 113.73201042 32.33333394 114.83427352 31.229702 115.93715858 C25.84228247 121.31694947 20.45166072 126.64572429 14.64407349 131.57830811 C11.96241249 133.89724077 9.48268651 136.40935585 7 138.9375 C6.26716797 139.67709961 6.26716797 139.67709961 5.51953125 140.43164062 C4.34396475 141.61873229 3.17161174 142.80900498 2 144 C-1.93214301 142.41060574 -4.33020346 139.83657498 -7.25 136.8125 C-10.2231141 133.74056852 -13.18334807 130.81386678 -16.44433594 128.05126953 C-22.20921129 123.02881289 -27.54762878 117.57645465 -32.9375 112.16015625 C-34.06927864 111.02650857 -35.2012812 109.89308441 -36.33349609 108.75987244 C-39.28822011 105.80136149 -42.23992653 102.83985819 -45.190979 99.87768555 C-48.21271471 96.84565275 -51.23734394 93.81650933 -54.26171875 90.78710938 C-60.17728805 84.86087033 -66.08966729 78.93146158 -72 73 C-70.43367582 69.04670115 -67.89966771 66.89191814 -64.74121094 64.11010742 C-57.61874182 57.73581071 -50.88291069 51.01000368 -44.140625 44.23828125 C-42.85762252 42.95340783 -41.57439474 41.66875935 -40.29095459 40.38432312 C-36.95487606 37.04447259 -33.62181444 33.70162779 -30.28942871 30.35809326 C-26.87189635 26.93023078 -23.4514411 23.50528745 -20.03125 20.08007812 C-13.35134535 13.38953025 -6.67463259 6.69580711 0 0 Z " fill="#39B5FD" transform="translate(179,77)"/>
<path d="M0 0 C0.33 0 0.66 0 1 0 C1.33 5.61 1.66 11.22 2 17 C2.99 17.33 3.98 17.66 5 18 C5.66 18.33 6.32 18.66 7 19 C9.00800456 18.71887936 11.01014051 18.38932033 13 18 C13.33 17.01 13.66 16.02 14 15 C14.99 15.33 15.98 15.66 17 16 C14.54976242 18.50804718 12.08852402 21.0050076 9.625 23.5 C8.92632812 24.21542969 8.22765625 24.93085938 7.5078125 25.66796875 C6.8375 26.34472656 6.1671875 27.02148438 5.4765625 27.71875 C4.85861816 28.34716797 4.24067383 28.97558594 3.60400391 29.62304688 C2 31 2 31 0 31 C0 20.77 0 10.54 0 0 Z " fill="#3CB5FA" transform="translate(211,263)"/>
<path d="M0 0 C11.18253303 9.42348289 11.18253303 9.42348289 12 14 C12.05894545 15.89460491 12.05946372 17.79137743 12.02172852 19.68652344 C11.99158409 21.39784454 11.99158409 21.39784454 11.96083069 23.14373779 C11.92027809 24.98297821 11.92027809 24.98297821 11.87890625 26.859375 C11.85529526 28.11888977 11.83168427 29.37840454 11.80735779 30.67608643 C11.74377606 34.01672274 11.67556319 37.35719911 11.60510254 40.69769287 C11.53427725 44.10958468 11.46954538 47.52159154 11.40429688 50.93359375 C11.27514476 57.62251602 11.13988533 64.31129405 11 71 C7.125 69.25 7.125 69.25 6 67 C6.66 67 7.32 67 8 67 C9.18641288 56.52722264 9.2529641 46.04370999 9.29516602 35.515625 C9.30680474 33.49081501 9.3274383 31.46603839 9.35668945 29.44140625 C9.39915627 26.49197906 9.41549067 23.54344392 9.42578125 20.59375 C9.45204338 19.23751526 9.45204338 19.23751526 9.47883606 17.85388184 C9.50150271 12.79311266 9.50150271 12.79311266 7.11401367 8.44726562 C5.0183834 7.01258538 3.50082337 6.35726048 1 6 C0.67 4.02 0.34 2.04 0 0 Z " fill="#4CB9F4" transform="translate(138,223)"/>
<path d="M0 0 C5.25174926 4.38442526 10.13222473 9.00842093 14.9375 13.875 C15.62134766 14.56335938 16.30519531 15.25171875 17.00976562 15.9609375 C18.67551464 17.63833511 20.3388622 19.31803791 22 21 C21.34 22.32 20.68 23.64 20 25 C15.2 21.67692308 15.2 21.67692308 14.1875 18.25 C14.125625 17.5075 14.06375 16.765 14 16 C11.69 15.67 9.38 15.34 7 15 C6.855625 14.236875 6.71125 13.47375 6.5625 12.6875 C6.0367406 9.91827092 6.0367406 9.91827092 5 7 C4.01 6.67 3.02 6.34 2 6 C0.8125 2.9375 0.8125 2.9375 0 0 Z " fill="#44B1ED" transform="translate(338,125)"/>
<path d="M0 0 C4.59037956 1.14759489 5.33669182 2.29039218 8 6 C5.525 5.01 5.525 5.01 3 4 C3.00444122 4.6072139 3.00888245 5.2144278 3.01345825 5.84004211 C3.05764612 12.15009207 3.08784749 18.4600982 3.10986328 24.77026367 C3.11993155 27.12640162 3.13358706 29.48252704 3.15087891 31.83862305 C3.17509076 35.22187386 3.18647478 38.60495972 3.1953125 41.98828125 C3.20563507 43.04461258 3.21595764 44.10094391 3.22659302 45.18928528 C3.22674408 46.17007553 3.22689514 47.15086578 3.22705078 48.16137695 C3.231492 49.02519485 3.23593323 49.88901276 3.24050903 50.77900696 C3 53 3 53 1 56 C0.67 37.52 0.34 19.04 0 0 Z " fill="#4BB8FA" transform="translate(210,0)"/>
<path d="M0 0 C0.33 0 0.66 0 1 0 C1.12666598 7.75942579 1.21429555 15.51858551 1.2746582 23.27880859 C1.29981879 25.91920942 1.33395063 28.5595405 1.37719727 31.19970703 C1.43777663 34.99268797 1.4661953 38.78474898 1.48828125 42.578125 C1.51408768 43.76053772 1.5398941 44.94295044 1.56648254 46.16119385 C1.56930051 54.37538973 1.56930051 54.37538973 -1.53051758 57.77636719 C-2.34544678 58.18016602 -3.16037598 58.58396484 -4 59 C-3.67 57.35 -3.34 55.7 -3 54 C-2.01 54 -1.02 54 0 54 C0 36.18 0 18.36 0 0 Z " fill="#4AB9F7" transform="translate(148,6)"/>
<path d="M0 0 C1.32 0.66 2.64 1.32 4 2 C3.84595887 7.08335725 0.97931568 9.35754718 -2.50390625 12.64453125 C-2.99761719 13.09183594 -3.49132812 13.53914062 -4 14 C-4.66 12.68 -5.32 11.36 -6 10 C-5.01 10.33 -4.02 10.66 -3 11 C-3.165 10.401875 -3.33 9.80375 -3.5 9.1875 C-4 7 -4 7 -4 4 C-2 1.8125 -2 1.8125 0 0 Z " fill="#41B5F4" transform="translate(231,162)"/>
<path d="M0 0 C6.41069287 5.27101414 12.18590512 11.09128152 18 17 C17.34 17.33 16.68 17.66 16 18 C14.125 17.1875 14.125 17.1875 12 16 C11.2575 15.62875 10.515 15.2575 9.75 14.875 C9.1725 14.58625 8.595 14.2975 8 14 C8 12.68 8 11.36 8 10 C7.01 9.67 6.02 9.34 5 9 C5 8.01 5 7.02 5 6 C3.35 6.33 1.7 6.66 0 7 C0 4.69 0 2.38 0 0 Z " fill="#4DB2EB" transform="translate(226,14)"/>
<path d="M0 0 C0.33 1.32 0.66 2.64 1 4 C-0.75 6.25 -0.75 6.25 -3 8 C-3.99 8 -4.98 8 -6 8 C-6 9.65 -6 11.3 -6 13 C-10.625 15.125 -10.625 15.125 -14 14 C-9.38 9.38 -4.76 4.76 0 0 Z " fill="#48B0EC" transform="translate(35,111)"/>
<path d="M0 0 C2.66710654 0.15240609 4.4505871 0.49364919 6.4453125 2.33203125 C10 6.50625 10 6.50625 10 9 C10.99 9 11.98 9 13 9 C13.33 10.32 13.66 11.64 14 13 C14.99 13 15.98 13 17 13 C17.33 14.65 17.66 16.3 18 18 C13.46334263 14.2698595 9.22058878 10.32946434 5.0625 6.1875 C4.31746216 5.44922974 4.31746216 5.44922974 3.55737305 4.69604492 C0 1.12375366 0 1.12375366 0 0 Z " fill="#51B0E5" transform="translate(126,272)"/>
<path d="M0 0 C0 5.50418927 -5.30777531 9.23182765 -9 13 C-11.27545978 15.09820476 -13.59143637 17.05265068 -16 19 C-16.66 18.67 -17.32 18.34 -18 18 C-12.06 12.06 -6.12 6.12 0 0 Z " fill="#4CAEE9" transform="translate(159,97)"/>
<path d="M0 0 C4.88049925 3.9419417 9.0580583 8.11950075 13 13 C11.02 13 9.04 13 7 13 C6.78085937 12.43410156 6.56171875 11.86820313 6.3359375 11.28515625 C5.36066957 9.02935359 4.40765852 7.01764387 3 5 C-0.12133744 3.86521065 -0.12133744 3.86521065 -3 4 C-2.67 3.34 -2.34 2.68 -2 2 C-1.34 2 -0.68 2 0 2 C0 1.34 0 0.68 0 0 Z " fill="#44AFE8" transform="translate(325,112)"/>
<path d="M0 0 C0.33 0 0.66 0 1 0 C1.01458252 0.77714355 1.02916504 1.55428711 1.04418945 2.35498047 C1.11846978 5.86216688 1.21519589 9.3683801 1.3125 12.875 C1.33505859 14.09832031 1.35761719 15.32164062 1.38085938 16.58203125 C1.41630859 17.74863281 1.45175781 18.91523438 1.48828125 20.1171875 C1.51446533 21.19597168 1.54064941 22.27475586 1.56762695 23.38623047 C1.71031006 24.24877441 1.85299316 25.11131836 2 26 C2.99 26.66 3.98 27.32 5 28 C3.625 29.5 3.625 29.5 2 31 C1.34 31 0.68 31 0 31 C0 20.77 0 10.54 0 0 Z " fill="#5BB5E7" transform="translate(211,263)"/>
<path d="M0 0 C1 2 1 2 0.375 4.5 C-1.34905874 7.63465226 -2.75929129 7.75357357 -6 9 C-6.88693303 11.04105639 -6.88693303 11.04105639 -7 13 C-8.65 13 -10.3 13 -12 13 C-8.19524578 8.43969176 -4.25030379 4.14910608 0 0 Z " fill="#50B0EA" transform="translate(245,199)"/>
<path d="M0 0 C2.375 0.25 2.375 0.25 5 1 C5.6837045 2.32467746 6.34964186 3.65863633 7 5 C7.845625 5.28875 8.69125 5.5775 9.5625 5.875 C10.366875 6.24625 11.17125 6.6175 12 7 C12.8125 10.125 12.8125 10.125 13 13 C8.11950075 9.0580583 3.9419417 4.88049925 0 0 Z " fill="#56AFE3" transform="translate(25,172)"/>
<path d="M0 0 C2.97 0.495 2.97 0.495 6 1 C6.103125 1.61875 6.20625 2.2375 6.3125 2.875 C6.87525373 5.36526484 6.87525373 5.36526484 10 7 C11.7703222 8.92491372 13.35920962 10.96009844 15 13 C14.67 13.66 14.34 14.32 14 15 C11.66265901 12.69152056 9.33081534 10.37756659 7 8.0625 C6.33226562 7.40314453 5.66453125 6.74378906 4.9765625 6.06445312 C4.34492188 5.43603516 3.71328125 4.80761719 3.0625 4.16015625 C2.47597656 3.57886963 1.88945312 2.99758301 1.28515625 2.39868164 C0 1 0 1 0 0 Z " fill="#51B1E7" transform="translate(10,157)"/>
<path d="M0 0 C0.99 0.33 1.98 0.66 3 1 C1.35718838 2.66964521 -0.28932761 4.3356464 -1.9375 6 C-2.85402344 6.928125 -3.77054688 7.85625 -4.71484375 8.8125 C-7 11 -7 11 -8 11 C-8.36275695 6.52599758 -8.36275695 6.52599758 -6.75 4.1875 C-5 3 -5 3 -1 3 C-0.67 2.01 -0.34 1.02 0 0 Z " fill="#4CB3E8" transform="translate(225,278)"/>
<path d="M0 0 C5.29012124 4.40843437 10.18808428 9.07559794 15 14 C9.95241957 14 6.63897005 10.26626362 3 7 C0 2.90909091 0 2.90909091 0 0 Z " fill="#51ACDF" transform="translate(118,203)"/>
<path d="M0 0 C4.91935902 4.11619836 9.52647956 8.40410362 14 13 C13.01 13.495 13.01 13.495 12 14 C11.67 14.66 11.34 15.32 11 16 C10.731875 15.236875 10.46375 14.47375 10.1875 13.6875 C9.0364442 11.08247899 8.19546244 9.75636995 6 8 C5.01 7.67 4.02 7.34 3 7 C3 6.01 3 5.02 3 4 C2.34 4 1.68 4 1 4 C0.67 2.68 0.34 1.36 0 0 Z " fill="#4DAEE6" transform="translate(214,111)"/>
<path d="M0 0 C4.13621084 3.3810038 7.81316569 6.66590534 11 11 C9.68 11 8.36 11 7 11 C7 10.01 7 9.02 7 8 C4.36 7.34 1.72 6.68 -1 6 C-0.01 5.67 0.98 5.34 2 5 C1.34 3.35 0.68 1.7 0 0 Z " fill="#4BB0E7" transform="translate(268,56)"/>
<path d="M0 0 C2.6875 0 2.6875 0 6 1 C8.11679111 3.4321716 9.77291044 6.01469255 11 9 C10.67 9.66 10.34 10.32 10 11 C8.33035479 9.35718838 6.6643536 7.71067239 5 6.0625 C4.071875 5.14597656 3.14375 4.22945312 2.1875 3.28515625 C0 1 0 1 0 0 Z " fill="#4EB1E8" transform="translate(94,240)"/>
<path d="M0 0 C5.70992843 1.08760541 7.74430808 3.77513112 10.8984375 8.3203125 C11.44371094 9.15175781 11.44371094 9.15175781 12 10 C9 10 9 10 6.73828125 8.06640625 C5.93777344 7.24011719 5.13726562 6.41382813 4.3125 5.5625 C3.50425781 4.73878906 2.69601563 3.91507813 1.86328125 3.06640625 C0 1 0 1 0 0 Z " fill="#31CFF6" transform="translate(153,195)"/>
<path d="M0 0 C4.26003643 0.78988175 5.35826267 2.61527405 8 6 C8.721875 6.33 9.44375 6.66 10.1875 7 C11.0846875 7.495 11.0846875 7.495 12 8 C12.75 10.625 12.75 10.625 13 13 C8.11950075 9.0580583 3.9419417 4.88049925 0 0 Z " fill="#56B2E4" transform="translate(111,153)"/>
<path d="M0 0 C0.33 0.66 0.66 1.32 1 2 C1.99 2.33 2.98 2.66 4 3 C1.36 5.64 -1.28 8.28 -4 11 C-5.2077558 7.37673261 -4.54311128 6.35853631 -3 3 C-2.67 3.66 -2.34 4.32 -2 5 C-1.34 5 -0.68 5 0 5 C0 3.35 0 1.7 0 0 Z " fill="#4DB3EC" transform="translate(245,151)"/>
<path d="M0 0 C2.31 0.33 4.62 0.66 7 1 C7.66 3.64 8.32 6.28 9 9 C7.87105124 8.06725891 6.74699124 7.12859878 5.625 6.1875 C4.99851562 5.66542969 4.37203125 5.14335937 3.7265625 4.60546875 C2 3 2 3 0 0 Z " fill="#4FB1EC" transform="translate(45,192)"/>
<path d="M0 0 C0.0825 0.61875 0.165 1.2375 0.25 1.875 C0.79923543 4.15042479 0.79923543 4.15042479 2.875 5.125 C3.57625 5.41375 4.2775 5.7025 5 6 C5.99 6.66 6.98 7.32 8 8 C7.67 8.99 7.34 9.98 7 11 C5.87105124 10.06725891 4.74699124 9.12859878 3.625 8.1875 C2.99851562 7.66542969 2.37203125 7.14335937 1.7265625 6.60546875 C0 5 0 5 -2 2 C-1.34 1.34 -0.68 0.68 0 0 Z " fill="#2DCEF7" transform="translate(279,124)"/>
<path d="M0 0 C1.14926266 0.95421808 2.29430541 1.91352045 3.4375 2.875 C4.07558594 3.40867187 4.71367187 3.94234375 5.37109375 4.4921875 C7 6 7 6 8 8 C5.69 8 3.38 8 1 8 C0 2.25 0 2.25 0 0 Z " fill="#4DB2EB" transform="translate(218,6)"/>
<path d="M0 0 C4.13621084 3.3810038 7.81316569 6.66590534 11 11 C8.53199953 9.84826645 6.95216435 8.95216435 5 7 C2.93125966 6.3574765 2.93125966 6.3574765 1 6 C0.67 4.02 0.34 2.04 0 0 Z " fill="#4FAEE1" transform="translate(138,223)"/>
<path d="M0 0 C4.52615993 3.67832017 8.39424999 7.41086363 12 12 C9.6875 11.8125 9.6875 11.8125 7 11 C5.4375 8.6875 5.4375 8.6875 4 6 C3.278125 5.278125 2.55625 4.55625 1.8125 3.8125 C1.214375 3.214375 0.61625 2.61625 0 2 C0 1.34 0 0.68 0 0 Z " fill="#4EACE5" transform="translate(202,99)"/>
<path d="M0 0 C3.65316671 1.24976756 4.78065836 1.67098753 7 5 C7.99 5 8.98 5 10 5 C10 6.65 10 8.3 10 10 C2.51708428 3.84965831 2.51708428 3.84965831 0 0 Z " fill="#49B4F0" transform="translate(166,207)"/>
<path d="M0 0 C-2.97 2.97 -5.94 5.94 -9 9 C-9 5.2205439 -7.95320589 3.20883825 -6 0 C-3.37419385 -1.19354825 -2.59016798 -1.29508399 0 0 Z " fill="#51B3E8" transform="translate(314,194)"/>
<path d="M0 0 C0.99 0.33 1.98 0.66 3 1 C0.03 3.97 -2.94 6.94 -6 10 C-6.33 9.01 -6.66 8.02 -7 7 C-6.21625 6.401875 -5.4325 5.80375 -4.625 5.1875 C-1.85425677 3.08914751 -1.85425677 3.08914751 0 0 Z " fill="#53AEE3" transform="translate(257,246)"/>
<path d="M0 0 C0.99 0.33 1.98 0.66 3 1 C0.03 3.97 -2.94 6.94 -6 10 C-6.33 9.01 -6.66 8.02 -7 7 C-6.21625 6.401875 -5.4325 5.80375 -4.625 5.1875 C-1.85425677 3.08914751 -1.85425677 3.08914751 0 0 Z " fill="#54AFE3" transform="translate(273,230)"/>
<path d="M0 0 C1.14926266 0.95421808 2.29430541 1.91352045 3.4375 2.875 C4.07558594 3.40867187 4.71367187 3.94234375 5.37109375 4.4921875 C7 6 7 6 8 8 C5.6875 7.8125 5.6875 7.8125 3 7 C0 2.96551724 0 2.96551724 0 0 Z M-1 5 C1 6 1 6 1 6 Z " fill="#49B1E8" transform="translate(284,72)"/>
<path d="M0 0 C1.98 1.65 3.96 3.3 6 5 C5.34 6.65 4.68 8.3 4 10 C1.04816899 7.04816899 0.91336012 4.04488053 0 0 Z " fill="#43B1EF" transform="translate(64,150)"/>
<path d="M0 0 C0.86625 0.495 0.86625 0.495 1.75 1 C4.19883862 2.27075898 4.19883862 2.27075898 8 2 C8.33 4.31 8.66 6.62 9 9 C7.87105124 8.06725891 6.74699124 7.12859878 5.625 6.1875 C4.99851563 5.66542969 4.37203125 5.14335938 3.7265625 4.60546875 C2 3 2 3 0 0 Z " fill="#51B3E9" transform="translate(224,73)"/>
<path d="M0 0 C0.66 0.99 1.32 1.98 2 3 C1.67 3.66 1.34 4.32 1 5 C0.34 4.67 -0.32 4.34 -1 4 C-1 4.66 -1 5.32 -1 6 C-2.98 6.66 -4.96 7.32 -7 8 C-6.02133662 6.85373678 -5.04205413 5.70800212 -4.0625 4.5625 C-3.51722656 3.92441406 -2.97195312 3.28632813 -2.41015625 2.62890625 C-1.63204305 1.73008851 -0.84063472 0.84063472 0 0 Z " fill="#4FB0E9" transform="translate(220,224)"/>
<path d="M0 0 C1.24546405 2.49092811 0.7767578 3.41080733 0 6 C-2.31 6.66 -4.62 7.32 -7 8 C-6.02133662 6.85373678 -5.04205413 5.70800212 -4.0625 4.5625 C-3.51722656 3.92441406 -2.97195312 3.28632813 -2.41015625 2.62890625 C-1.63204305 1.73008851 -0.84063472 0.84063472 0 0 Z " fill="#52AEE5" transform="translate(20,126)"/>
<path d="M0 0 C2.64 0.66 5.28 1.32 8 2 C8 3.98 8 5.96 8 8 C6.85073734 7.04578192 5.70569459 6.08647955 4.5625 5.125 C3.92441406 4.59132813 3.28632813 4.05765625 2.62890625 3.5078125 C1 2 1 2 0 0 Z " fill="#4CB3EC" transform="translate(216,65)"/>
<path d="M0 0 C0 3 0 3 -1.9375 5.0625 C-2.618125 5.701875 -3.29875 6.34125 -4 7 C-4.33 7.66 -4.66 8.32 -5 9 C-5.99 8.34 -6.98 7.68 -8 7 C-5.36 4.69 -2.72 2.38 0 0 Z " fill="#4DB2EC" transform="translate(264,181)"/>
<path d="M0 0 C5.75 1.625 5.75 1.625 8 5 C7.67 5.99 7.34 6.98 7 8 C5.83035398 6.8572081 4.66435444 5.71068285 3.5 4.5625 C2.8503125 3.92441406 2.200625 3.28632813 1.53125 2.62890625 C0 1 0 1 0 0 Z " fill="#56B0E5" transform="translate(127,169)"/>
<path d="M0 0 C0.66 0.33 1.32 0.66 2 1 C-1.465 3.97 -1.465 3.97 -5 7 C-5.33 5.68 -5.66 4.36 -6 3 C-4.03533587 1.93224776 -2.03144641 0.93446535 0 0 Z " fill="#4BB4EB" transform="translate(79,128)"/>
<path d="M0 0 C0 3 0 3 -1.9375 5 C-2.618125 5.66 -3.29875 6.32 -4 7 C-4.33 7.99 -4.66 8.98 -5 10 C-6.32 9.67 -7.64 9.34 -9 9 C-6.03 6.03 -3.06 3.06 0 0 Z " fill="#52B1E1" transform="translate(89,58)"/>
<path d="M0 0 C1.32 0.33 2.64 0.66 4 1 C0.535 3.97 0.535 3.97 -3 7 C-3 5.35 -3 3.7 -3 2 C-2.34 2 -1.68 2 -1 2 C-0.67 1.34 -0.34 0.68 0 0 Z " fill="#4FB3E8" transform="translate(99,106)"/>
<path d="M0 0 C2.31 0.66 4.62 1.32 7 2 C7 3.65 7 5.3 7 7 C5.83040013 6.02433888 4.66438823 5.044375 3.5 4.0625 C2.8503125 3.51722656 2.200625 2.97195312 1.53125 2.41015625 C1.0259375 1.94480469 0.520625 1.47945313 0 1 C0 0.67 0 0.34 0 0 Z " fill="#4DB3EB" transform="translate(247,96)"/>
<path d="M0 0 C-3.465 2.97 -3.465 2.97 -7 6 C-6.625 3.0625 -6.625 3.0625 -6 0 C-4 -1 -4 -1 0 0 Z " fill="#4FB4EB" transform="translate(112,98)"/>
<path d="M0 0 C0.66 0.33 1.32 0.66 2 1 C-0.31 3.31 -2.62 5.62 -5 8 C-5.33 6.68 -5.66 5.36 -6 4 C-4.02 2.68 -2.04 1.36 0 0 Z " fill="#54B2E6" transform="translate(87,120)"/>
<path d="M0 0 C0.99 0.33 1.98 0.66 3 1 C-0.465 3.97 -0.465 3.97 -4 7 C-3.6875 4.625 -3.6875 4.625 -3 2 C-2.01 1.34 -1.02 0.68 0 0 Z " fill="#55AEE4" transform="translate(238,265)"/>
<path d="M0 0 C1.98 0.66 3.96 1.32 6 2 C6.33 3.65 6.66 5.3 7 7 C5.83040013 6.02433888 4.66438823 5.044375 3.5 4.0625 C2.8503125 3.51722656 2.200625 2.97195313 1.53125 2.41015625 C1.0259375 1.94480469 0.520625 1.47945313 0 1 C0 0.67 0 0.34 0 0 Z " fill="#51B2E6" transform="translate(112,258)"/>
<path d="M0 0 C0.66 1.32 1.32 2.64 2 4 C1.01 4.66 0.02 5.32 -1 6 C-2.32 4.35 -3.64 2.7 -5 1 C-2.525 1.495 -2.525 1.495 0 2 C0 1.34 0 0.68 0 0 Z " fill="#30C9F9" transform="translate(60,201)"/>
<path d="M0 0 C0.99 0.33 1.98 0.66 3 1 C0.03 3.475 0.03 3.475 -3 6 C-3.33 5.01 -3.66 4.02 -4 3 C-3.34 3 -2.68 3 -2 3 C-2 2.34 -2 1.68 -2 1 C-1.34 0.67 -0.68 0.34 0 0 Z " fill="#4BB1EB" transform="translate(263,240)"/>
<path d="M0 0 C1.98 0.66 3.96 1.32 6 2 C6.33 3.65 6.66 5.3 7 7 C5.83040013 6.02433888 4.66438823 5.044375 3.5 4.0625 C2.8503125 3.51722656 2.200625 2.97195312 1.53125 2.41015625 C1.0259375 1.94480469 0.520625 1.47945312 0 1 C0 0.67 0 0.34 0 0 Z " fill="#58AEE3" transform="translate(143,185)"/>
<path d="M0 0 C0.99 0.99 1.98 1.98 3 3 C0.03 5.475 0.03 5.475 -3 8 C-1.125 1.125 -1.125 1.125 0 0 Z " fill="#4EB4ED" transform="translate(323,179)"/>
<path d="M0 0 C1.14926266 0.95421808 2.29430541 1.91352045 3.4375 2.875 C4.07558594 3.40867188 4.71367187 3.94234375 5.37109375 4.4921875 C7 6 7 6 8 8 C5.125 7.375 5.125 7.375 2 6 C0.625 2.875 0.625 2.875 0 0 Z " fill="#4DACDE" transform="translate(338,125)"/>
<path d="M0 0 C0.33 1.32 0.66 2.64 1 4 C-1.375 5.5625 -1.375 5.5625 -4 7 C-4.66 6.67 -5.32 6.34 -6 6 C-4.02 4.02 -2.04 2.04 0 0 Z " fill="#54ACDF" transform="translate(35,111)"/>
<path d="M0 0 C1.14926266 0.95421808 2.29430541 1.91352045 3.4375 2.875 C4.07558594 3.40867188 4.71367187 3.94234375 5.37109375 4.4921875 C7 6 7 6 8 8 C5.33333333 6.66666667 2.66666667 5.33333333 0 4 C0 2.68 0 1.36 0 0 Z " fill="#4FAEE2" transform="translate(260,48)"/>
<path d="M0 0 C0.33 1.32 0.66 2.64 1 4 C-1.64738916 5.4606285 -2.89448334 6 -6 6 C-4.02 4.02 -2.04 2.04 0 0 Z " fill="#52B0E4" transform="translate(227,217)"/>
<path d="M0 0 C1.32 0.33 2.64 0.66 4 1 C4.33 2.98 4.66 4.96 5 7 C1.18461538 4.53846154 1.18461538 4.53846154 0.25 1.8125 C0.1675 1.214375 0.085 0.61625 0 0 Z " fill="#4BB3F1" transform="translate(33,178)"/>
</svg>
